HIERARCHY
ROOT pelvis
{
  OFFSET 0 100 0
  CHANNELS 6 Xposition Yposition Zposition Zrotation Xrotation Yrotation
  JOINT pelvis_right_femur
  {
    OFFSET -10.78128 -3.44521 -0.5502486
    CHANNELS 3 Zrotation Xrotation Yrotation
    JOINT right_femur_tibia
    {
      OFFSET -0.8047443 -44.0398 -0.1307829
      CHANNELS 3 Zrotation Xrotation Yrotation
      JOINT right_tibia_foot
      {
        OFFSET 3.006224 -47.83518 -5
        CHANNELS 3 Zrotation Xrotation Yrotation
        End Site
        {
          OFFSET 0 -5 15
        }
      }
    }
  }
  JOINT pelvis_left_femur
  {
    OFFSET 10.78128 -3.44521 -0.5502486
    CHANNELS 3 Zrotation Xrotation Yrotation
    JOINT left_femur_tibia
    {
      OFFSET 0.8047443 -44.0398 -0.1307829
      CHANNELS 3 Zrotation Xrotation Yrotation
      JOINT left_tibia_foot
      {
        OFFSET -4.370144 -48.10324 -4.275266
        CHANNELS 3 Zrotation Xrotation Yrotation
        End Site
        {
          OFFSET 0 -5 15
        }
      }
    }
  }
  JOINT pelvis_spine1
  {
    OFFSET 0 6.468898 -3.129235
    CHANNELS 3 Zrotation Xrotation Yrotation
    JOINT spine1
    {
      OFFSET 0 23.15396 4.99043
      CHANNELS 3 Zrotation Xrotation Yrotation
      JOINT spine2
      {
        OFFSET 0 20.79997 -5.064912
        CHANNELS 3 Zrotation Xrotation Yrotation
        JOINT neck
        {
          OFFSET 0 14.38658 9.616178
          CHANNELS 3 Zrotation Xrotation Yrotation
          End Site
          {
            OFFSET 0 20 0
          }
        }
      }
      JOINT right_manubrium
      {
        OFFSET -5.722621 16.35077 3.967754
        CHANNELS 3 Zrotation Xrotation Yrotation
        JOINT right_clavicle
        {
          OFFSET -13.16364 1.694482 -4.693211
          CHANNELS 3 Zrotation Xrotation Yrotation
          JOINT right_humerus
          {
            OFFSET -28.5034 -0.3100689 -2.792744
            CHANNELS 3 Zrotation Xrotation Yrotation
            JOINT right_radius
            {
              OFFSET -25.15693 0.02248979 -1.271978
              CHANNELS 3 Zrotation Xrotation Yrotation
              End Site
              {
                OFFSET -15 0 0
              }
            }
          }
        }
      }
      JOINT left_manubrium
      {
        OFFSET 5.722621 16.35077 3.967754
        CHANNELS 3 Zrotation Xrotation Yrotation
        JOINT left_clavicle
        {
          OFFSET 13.16364 1.694482 -4.693211
          CHANNELS 3 Zrotation Xrotation Yrotation
          JOINT left_humerus
          {
            OFFSET 29.39168 -1.063119 -2.237045
            CHANNELS 3 Zrotation Xrotation Yrotation
            JOINT left_radius
            {
              OFFSET 24.59957 -0.9528479 0.9047498
              CHANNELS 3 Zrotation Xrotation Yrotation
              End Site
              {
                OFFSET 15 -0 -0
              }
            }
          }
        }
      }
    }
  }
}
MOTION
Frames: 23
Frame Time: 0.0416666666667
2080.16 98.86572 2034.925 9.546693 -0.2655812 84.1244 4.994898 6.115488 6.07945 -0 17.62163 -0 -1.120128 -11.04768 -5.597404 -0.8742492 -12.30858 -5.076185 -0 49.9602 -0 -8.2319 -6.531661 18.9751 -0.556419 1.371334 6.758241 -0.02104505 10.6314 -4.025639 2.825932 23.29416 3.920429 1.842525 -15.83735 6.418027 1.143282 -17.93617 11.35555 85.45068 22.21853 -12.37756 -0 0 16.45592 -20.03761 10.67059 9.790714 4.461398 -17.67697 -3.588183 -90.58784 23.51003 17.39398 0 0 -14.39062 0.02813346 7.842396 12.84153
2086.387 98.819 2035.098 6.775521 0.1631885 83.30582 4.086996 10.4218 6.043276 -0 13.80538 -0 0.4134656 -11.67946 -2.931178 0.5797387 -20.81918 -3.151403 -0 39.95987 -0 -6.834544 -6.206743 18.41637 -1.01564 0.8742224 8.298019 -0.1544102 11.12546 -4.0993 1.754947 21.73082 4.860011 2.497667 -17.2545 5.797111 2.488844 -20.24979 12.18944 81.99551 25.70181 -9.807797 -0 0 20.26527 -22.2042 11.38027 12.54597 4.466336 -17.91606 -3.114325 -91.15532 21.81612 21.30574 0 0 -15.71253 -0.03474398 5.911254 13.33829
2092.837 98.2798 2035.084 4.750008 0.4492326 82.69278 3.248699 13.11339 5.382496 -0 12.89574 -0 0.8257353 -12.08727 -1.082184 1.329971 -25.55547 -2.233865 -0 31.87184 -0 -5.933002 -6.260297 17.66634 -1.425602 0.5306017 8.916308 -0.214073 10.79471 -4.007854 1.190289 21.07175 5.385045 2.781911 -18.2101 5.588194 3.093741 -21.26909 12.34251 79.69754 27.78415 -7.620515 -0 0 22.25389 -23.30077 11.37991 14.21934 4.409005 -17.6229 -2.61239 -91.51083 21.33477 23.50368 0 0 -15.54543 -0.08009725 5.139014 13.64518
2099.501 97.55813 2034.997 4.027087 0.6220174 82.27561 2.602228 14.55697 4.833393 -0 15.17151 -0 0.9827289 -11.32157 -0.3735332 1.115192 -26.793 -2.351763 -0 27.55979 -0 -5.570095 -6.573937 17.34956 -1.729414 0.2363089 9.005907 -0.3443864 10.43143 -3.826984 1.085725 20.96661 5.572311 2.877942 -18.5225 5.625665 3.130791 -21.4747 12.16289 78.93789 28.12675 -6.549225 -0 0 22.93696 -23.90412 11.09897 14.92147 4.325938 -17.15158 -2.403823 -91.87735 21.47926 24.51491 0 0 -14.52235 -0.3695746 5.035665 14.09613
2106.428 96.96204 2034.848 4.084706 0.8252298 82.04143 1.937945 15.24743 4.830237 -0 20.03304 -0 1.764785 -9.472259 -0.4050922 0.3273631 -26.19364 -2.915323 -0 25.67694 -0 -5.529807 -7.017727 17.23397 -1.983007 -0.1260507 9.057985 -0.5956596 10.398 -3.695889 1.162474 20.83053 5.637028 2.947548 -18.42942 5.696783 3.152927 -21.46726 12.02167 78.99041 27.62216 -6.390912 -0 0 23.34925 -24.53399 10.95548 15.21407 4.176986 -16.69928 -2.471559 -92.10166 21.63223 25.12252 0 0 -13.6323 -0.9828503 4.748764 14.92048
2113.619 96.68893 2034.614 4.6814 1.059434 82.01992 1.165208 15.35389 5.285503 -0 27.36447 -0 3.191079 -7.263628 -1.034492 -0.8350509 -24.30906 -3.797472 -0 24.77584 -0 -5.672617 -7.610115 17.17846 -2.215405 -0.5048283 9.080722 -0.9324804 10.54017 -3.621003 1.333838 20.63474 5.601541 2.931744 -18.01123 5.787642 3.259788 -21.36718 11.91178 79.47612 26.62834 -6.730325 -0 0 23.79998 -25.1078 10.9797 15.25759 3.927553 -16.1405 -2.699258 -92.17202 21.82851 25.52423 0 0 -12.79343 -1.923206 4.186642 16.13927
2120.957 96.84429 2034.281 5.858605 1.245397 82.26264 0.3355726 14.70683 5.945815 -0 36.94862 -0 4.849256 -5.579379 -2.295499 -2.263407 -20.97988 -5.074283 -0 23.95701 -0 -5.9013 -8.442593 17.22653 -2.421247 -0.7344428 8.85582 -1.28201 10.57081 -3.561709 1.629544 20.62708 5.385609 2.684021 -17.22124 5.980656 3.301149 -21.05452 11.67811 80.3665 25.14778 -7.258954 -0 0 24.13727 -25.25405 11.04787 14.93636 3.59448 -15.318 -2.976635 -92.09771 22.32191 25.47463 0 0 -11.57217 -3.058914 3.654247 17.53886
2128.195 97.4497 2033.86 7.502526 1.339247 82.82182 -0.4467373 12.88071 6.466974 -0 47.74268 -0 6.046753 -5.000862 -4.047241 -3.763322 -16.14191 -6.707764 -0 22.53531 -0 -5.956438 -9.603895 17.41865 -2.628023 -0.6719572 8.171731 -1.541336 10.2775 -3.533558 2.053582 21.04731 4.968411 2.139343 -16.12775 6.354769 3.14761 -20.36701 11.201 81.64106 23.43221 -7.794005 -0 0 23.9785 -24.63816 11.03178 14.13737 3.262795 -14.30387 -3.20649 -91.76449 23.24486 24.54523 0 0 -9.811104 -3.984737 3.595272 18.58731
2135.002 98.38598 2033.379 9.123395 1.430088 83.71205 -1.122412 9.43294 6.549911 -0 57.34564 -0 6.205155 -5.252592 -5.906592 -5.067774 -10.36243 -8.386318 -0 19.9439 -0 -5.393154 -11.14879 17.73334 -2.930547 -0.3618592 7.054054 -1.61157 9.785097 -3.698579 2.45826 21.84879 4.538639 1.482355 -15.039 6.854724 2.901764 -19.32901 10.58471 83.09366 22.27039 -8.46387 -0 0 22.96259 -23.41792 10.94959 13.05285 3.097694 -13.62098 -3.397843 -90.89048 24.34351 22.4375 0 0 -8.257826 -4.156698 4.24263 18.66823
2141.133 99.35002 2032.884 10.10083 1.636754 84.86742 -1.63364 4.214551 6.087154 -0 62.44463 -0 5.352848 -5.438466 -7.483678 -5.953006 -4.600547 -9.61714 -0 16.17304 -0 -4.050423 -13.06889 18.07166 -3.375454 0.006411118 5.78103 -1.431852 9.491067 -4.271864 2.598724 22.66523 4.412573 1.069228 -14.3427 7.273047 2.804397 -18.19814 10.1214 84.44234 22.41501 -9.701326 -0 0 21.00519 -22.24989 10.98688 12.1383 3.283829 -13.96335 -3.680364 -89.25657 25.08504 19.21386 0 0 -8.339628 -3.34593 5.325824 17.59502
2146.639 99.98307 2032.452 10.13136 1.871575 86.14325 -1.796248 -2.374139 5.201454 -0 60.67509 -0 4.037872 -5.218038 -8.595568 -6.272299 0.6228592 -10.05344 -0 12.39511 -0 -2.640364 -15.16247 18.09614 -3.776034 0.3280744 4.614715 -0.9817608 9.497099 -5.235572 2.432605 23.1302 4.652398 1.041086 -14.20787 7.466402 2.869914 -17.16483 9.939918 85.61611 23.61709 -11.73954 -0 0 18.40596 -21.50356 11.2556 11.58244 3.848884 -15.39518 -4.066858 -87.05539 25.20556 15.30715 0 0 -10.73263 -1.964609 6.282722 15.86294
2151.901 100.0949 2032.175 9.357436 1.934109 87.37048 -1.477508 -9.401197 4.209042 -0 52.50772 -0 2.805594 -5.045171 -9.315482 -6.05382 5.506677 -9.780506 -0 10.35931 -0 -2.230681 -17.03301 17.36988 -3.869226 0.5655009 3.652543 -0.3202305 9.477042 -6.316476 2.202177 23.14501 4.974939 1.206149 -14.50477 7.496446 2.865636 -16.172 9.864114 86.74829 24.87906 -14.36413 -0 0 15.64 -20.90078 11.65456 11.09652 4.616174 -17.25268 -4.362317 -84.73669 24.93154 11.25764 0 0 -14.73134 -0.6865969 6.782922 14.19549
2157.339 99.66178 2032.114 8.240224 1.813798 88.42494 -0.8822402 -15.81658 3.351608 -0 40.92975 -0 1.822364 -5.225884 -9.814367 -5.570169 10.29774 -9.222235 -0 10.31133 -0 -2.971982 -18.47377 16.02075 -3.669279 0.6592931 2.882745 0.3770499 9.192259 -7.237724 2.143167 22.91711 5.122226 1.341069 -14.92924 7.512325 2.572574 -15.14343 9.671371 87.94453 25.47168 -17.11148 -0 0 13.04894 -20.15394 11.969 10.38313 5.416438 -18.93758 -4.43967 -82.60615 24.59657 7.383626 0 0 -19.11073 0.2525878 7.004453 12.83569
2163.156 98.73308 2032.261 7.275802 1.66194 89.26637 -0.3805819 -20.74161 2.625508 -0 29.61903 -0 0.9878312 -5.574238 -10.14878 -5.115209 14.60516 -8.737994 -0 11.15664 -0 -4.165644 -19.50157 14.63506 -3.387554 0.6110581 2.284456 0.9145975 8.719361 -7.845447 2.283318 22.74437 5.067907 1.377994 -15.22458 7.583962 1.975327 -14.16878 9.336267 89.12766 25.27756 -19.44925 -0 0 10.84947 -19.37841 12.03564 9.505629 6.129408 -20.22895 -4.378443 -80.85232 24.36841 3.976679 0 0 -22.86254 0.9710179 7.290408 11.69351
2169.34 97.48011 2032.558 6.728621 1.560679 89.91993 -0.05063504 -23.60354 2.077062 -0 21.44295 -0 0.2680884 -5.810496 -10.30614 -4.81251 17.62912 -8.422755 -0 12.79294 -0 -5.253437 -19.95121 13.6066 -3.130196 0.5078287 1.896015 1.220992 8.292159 -8.120947 2.498375 22.73849 4.919096 1.358288 -15.35333 7.669114 1.327167 -13.40592 9.021142 90.09232 24.65752 -21.03021 -0 0 9.201896 -18.77578 11.89092 8.712385 6.596485 -21.04322 -4.306222 -79.70295 24.27233 1.55736 0 0 -25.34261 1.493776 7.672307 10.83846
2175.782 96.18679 2032.931 6.627168 1.481956 90.42452 0.3220286 -24.41111 1.884606 -0 17.34214 -0 -0.2942823 -5.878834 -10.3395 -4.644688 19.02613 -8.237247 -0 16.0276 -0 -6.128571 -19.60204 13.01706 -2.863941 0.4438105 1.742919 1.350593 8.065843 -8.135754 2.683065 22.84774 4.759813 1.325296 -15.40277 7.7155 0.8890605 -12.91033 8.86344 90.73655 24.02108 -21.85627 -0 0 8.11266 -18.33293 11.6746 8.111716 6.72696 -21.36052 -4.262695 -79.27662 24.27837 0.4304762 0 0 -26.37556 1.774507 7.979276 10.38437
2182.382 95.10847 2033.338 6.888048 1.398937 90.80267 0.8367737 -23.6858 2.054225 -0 16.38749 -0 -0.7409025 -5.94126 -10.32894 -4.546077 19.14757 -8.146047 -0 20.91412 -0 -6.878069 -18.55735 12.79154 -2.559678 0.4562953 1.766368 1.372855 8.001697 -7.9645 2.838425 23.04111 4.588097 1.274811 -15.39799 7.727833 0.6669062 -12.60023 8.841931 91.12243 23.46409 -22.12147 -0 0 7.43434 -17.92383 11.43628 7.625298 6.582391 -21.26853 -4.226492 -79.42545 24.39088 0.3122181 0 0 -26.24529 1.847784 8.18372 10.26579
2189.073 94.38985 2033.767 7.419503 1.314132 91.06078 1.424139 -22.016 2.426521 -0 17.17097 -0 -1.169554 -6.183102 -10.32172 -4.460772 18.52137 -8.135421 -0 26.76978 -0 -7.578362 -17.12147 12.83446 -2.229026 0.5446981 1.875123 1.324523 7.980604 -7.650126 3.014305 23.33763 4.365469 1.18236 -15.30232 7.73781 0.5215408 -12.36648 8.865201 91.35365 22.87678 -21.99745 -0 0 7.01075 -17.46593 11.14441 7.143708 6.283037 -20.89321 -4.17613 -79.91078 24.64155 0.7074091 0 0 -25.34894 1.793199 8.389343 10.3321
2195.8 94.0883 2034.221 8.166372 1.22619 91.19561 2.022857 -19.76519 2.870274 -0 18.75936 -0 -1.653172 -6.698748 -10.33497 -4.354172 17.46296 -8.196309 -0 33.02018 -0 -8.266519 -15.52387 13.09634 -1.882884 0.7069004 2.008468 1.223499 7.92434 -7.210098 3.248722 23.75587 4.064158 1.032844 -15.09009 7.768297 0.3416158 -12.15166 8.873167 91.49579 22.14557 -21.56616 -0 0 6.760075 -16.93516 10.76543 6.611852 5.914482 -20.31769 -4.103634 -80.60162 25.04821 1.315296 0 0 -23.91938 1.666772 8.688353 10.47707
2202.514 94.216 2034.716 9.092395 1.118649 91.19676 2.632419 -17.08762 3.326119 -0 20.6593 -0 -2.226214 -7.491683 -10.3617 -4.202366 16.04486 -8.310511 -0 39.39499 -0 -8.951778 -13.87312 13.57256 -1.518539 0.94445 2.147052 1.083235 7.816826 -6.651957 3.55468 24.29022 3.67836 0.8298493 -14.77183 7.825044 0.07939505 -11.95662 8.854135 91.57197 21.2173 -20.85047 -0 0 6.67029 -16.34931 10.29184 6.032094 5.522339 -19.58847 -4.010255 -81.48929 25.59641 2.068819 0 0 -22.04023 1.496729 9.122689 10.64992
2209.16 94.75782 2035.26 10.13883 0.967141 91.04719 3.285824 -14.02218 3.776484 -0 22.52402 -0 -2.877134 -8.48276 -10.363 -3.983767 14.14678 -8.434286 -0 45.72197 -0 -9.606402 -12.21776 14.28607 -1.131801 1.249452 2.312269 0.9177122 7.702547 -5.992894 3.913604 24.89426 3.233495 0.6039564 -14.3995 7.892795 -0.2574661 -11.84283 8.838664 91.56618 20.12214 -19.85814 -0 0 6.792041 -15.78324 9.757169 5.469684 5.137549 -18.76028 -3.906799 -82.63866 26.21786 3.068722 0 0 -19.76827 1.297739 9.679427 10.8336
2215.678 95.66382 2035.849 11.17718 0.7561647 90.72459 4.007306 -10.52946 4.228146 -0 23.96045 -0 -3.506479 -9.504222 -10.24604 -3.675376 11.44438 -8.474998 -0 51.65335 -0 -10.13924 -10.5974 15.2706 -0.7375141 1.583824 2.581974 0.7386958 7.699678 -5.280904 4.255199 25.45142 2.807415 0.4269363 -14.07391 7.924031 -0.5963684 -11.95811 8.902314 91.39892 19.02322 -18.60972 -0 0 7.26752 -15.41007 9.264401 5.082957 4.794824 -17.93879 -3.816892 -84.14235 26.75247 4.558014 0 0 -17.25938 1.072453 10.25931 11.04393
2222.008 96.81812 2036.443 11.94557 0.5085103 90.20791 4.74709 -6.497498 4.71024 -0 24.42103 -0 -3.85596 -10.31861 -9.82813 -3.242676 7.371202 -8.263814 -0 56.29686 -0 -10.36628 -9.082152 16.5254 -0.3967811 1.854701 3.116152 0.5474048 8.004854 -4.615707 4.428263 25.73492 2.556988 0.4227451 -13.9539 7.82621 -0.7724156 -12.57071 9.168335 90.86853 18.29708 -17.1466 -0 0 8.389568 -15.54191 9.016174 5.164974 4.541008 -17.30979 -3.771853 -86.04194 26.90456 6.894384 0 0 -14.91116 0.8049953 10.61417 11.34311
